<?xml version="1.0" standalone="no"?>
<!DOCTYPE svg PUBLIC "-//W3C//DTD SVG 20010904//EN"
 "http://www.w3.org/TR/2001/REC-SVG-20010904/DTD/svg10.dtd">
<svg version="1.0" xmlns="http://www.w3.org/2000/svg"
 width="260.000000pt" height="260.000000pt" viewBox="0 0 260.000000 260.000000"
 preserveAspectRatio="xMidYMid meet">
<metadata>
Created by potrace 1.11, written by Peter Selinger 2001-2013
</metadata>
<g transform="translate(0.000000,260.000000) scale(0.100000,-0.100000)"
fill="#000000" stroke="none">
<path d="M1142 2589 c-560 -76 -995 -479 -1114 -1032 -30 -144 -30 -370 0
-514 84 -391 326 -712 671 -891 203 -106 368 -145 601 -145 122 0 177 4 257
21 518 111 904 497 1015 1015 30 144 30 370 0 514 -97 452 -409 812 -840 967
-166 59 -422 88 -590 65z m640 -661 c22 -8 28 -18 33 -52 6 -36 -6 -96 -19
-96 -3 0 -17 5 -33 11 -15 6 -43 8 -61 4 -41 -8 -62 -50 -62 -125 l0 -50 69 0
c77 0 81 -4 81 -71 0 -69 -11 -79 -85 -79 l-65 0 -2 -272 -3 -273 -85 0 -85 0
-3 273 -2 272 -44 0 c-57 0 -68 15 -64 87 l3 58 51 3 51 3 5 87 c5 87 21 134
57 176 49 56 175 77 263 44z m483 -309 c76 -33 85 -45 85 -113 0 -34 -5 -67
-11 -73 -8 -8 -29 -1 -77 24 -57 30 -74 34 -116 30 -41 -4 -55 -11 -82 -40
-80 -87 -64 -325 25 -371 46 -24 119 -20 166 9 63 38 85 49 91 43 13 -13 14
-114 2 -138 -43 -81 -244 -111 -364 -54 -138 66 -197 270 -139 479 41 146 162
230 320 221 39 -2 84 -10 100 -17z m-1860 -12 c6 -9 40 -122 75 -253 41 -152
66 -230 70 -218 4 11 33 122 65 247 54 212 61 230 84 239 31 12 127 6 142 -9
5 -5 38 -117 74 -247 35 -131 66 -240 68 -242 2 -2 33 107 68 242 69 269 67
264 143 264 65 0 96 -11 96 -34 0 -38 -187 -658 -201 -667 -8 -5 -56 -9 -106
-9 -85 0 -94 2 -107 23 -8 12 -38 109 -67 215 -29 105 -53 191 -55 190 -1 -2
-25 -93 -54 -203 -28 -110 -56 -206 -62 -212 -14 -18 -202 -18 -216 0 -14 17
-192 628 -192 660 0 31 18 36 104 33 40 -2 62 -7 71 -19z"/>
</g>
</svg>
